<svg width="8" height="12" viewBox="0 0 8 12" fill="none" xmlns="http://www.w3.org/2000/svg">
<path d="M2.58999 11.0002L6.82999 6.71019C6.92372 6.61723 6.99812 6.50663 7.04889 6.38477C7.09965 6.26291 7.12579 6.1322 7.12579 6.00019C7.12579 5.86818 7.09965 5.73747 7.04889 5.61562C6.99812 5.49376 6.92372 5.38316 6.82999 5.29019L2.59 1.05019C2.49703 0.956464 2.38643 0.88207 2.26457 0.831301C2.14271 0.780532 2.01201 0.754394 1.88 0.754394C1.74798 0.754394 1.61728 0.780532 1.49542 0.831301C1.37356 0.88207 1.26296 0.956464 1.17 1.05019C0.983744 1.23755 0.879203 1.49101 0.879203 1.75519C0.879203 2.01938 0.983744 2.27283 1.17 2.46019L4.71 6.00019L1.16999 9.54019C0.985251 9.72645 0.8811 9.97785 0.879995 10.2402C0.879234 10.3718 0.904459 10.5023 0.954223 10.6241C1.00399 10.7459 1.07731 10.8568 1.16999 10.9502C1.25961 11.0473 1.36758 11.1256 1.48765 11.1807C1.60773 11.2358 1.73754 11.2666 1.86957 11.2713C2.00161 11.2759 2.13325 11.2543 2.25691 11.2078C2.38056 11.1613 2.49377 11.0907 2.58999 11.0002Z" fill="#C8D2DC"/>
</svg>
