<svg width="16" height="20" viewBox="0 0 16 20" fill="none" xmlns="http://www.w3.org/2000/svg">
<path d="M8.2402 0.400024C2.9602 0.400024 0.200195 3.76002 0.200195 7.48002C0.200195 9.28002 1.1602 11.08 2.7202 12.04C3.2002 12.28 3.0802 12.04 3.4402 10.6C3.4402 10.48 3.4402 10.36 3.3202 10.24C1.1602 7.60002 2.9602 2.44002 8.0002 2.44002C15.3202 2.44002 13.8802 12.52 9.3202 12.52C8.3602 12.64 7.5202 11.92 7.5202 10.96V10.48C8.0002 9.16002 8.3602 7.96002 8.4802 6.64002C8.4802 4.12002 4.7602 4.48002 4.7602 7.84002C4.7602 8.44002 4.8802 9.04003 5.1202 9.52003C5.1202 9.52003 3.9202 14.44 3.6802 15.28C3.4402 16.72 3.5602 18.16 3.8002 19.48C3.6802 19.6 3.8002 19.6 3.8002 19.6H3.9202C4.7602 18.4 5.4802 17.2 5.9602 15.88C6.0802 15.28 6.6802 13.12 6.6802 13.12C7.2802 13.96 8.3602 14.44 9.4402 14.44C13.1602 14.44 15.8002 11.2 15.8002 7.24002C15.8002 3.28002 12.4402 0.400024 8.2402 0.400024Z" fill="#FCFFFF"/>
</svg>
