<svg width="6" height="8" viewBox="0 0 6 8" fill="none" xmlns="http://www.w3.org/2000/svg">
<path d="M3.47345 4.49987L1.11345 6.85987C0.989285 6.98478 0.91959 7.15375 0.91959 7.32987C0.91959 7.50599 0.989285 7.67496 1.11345 7.79987C1.17543 7.86236 1.24916 7.91195 1.3304 7.9458C1.41164 7.97964 1.49878 7.99707 1.58679 7.99707C1.67479 7.99707 1.76193 7.97964 1.84317 7.9458C1.92441 7.91195 1.99814 7.86236 2.06012 7.79987L4.88679 4.97321C4.94927 4.91123 4.99887 4.8375 5.03271 4.75626C5.06656 4.67502 5.08398 4.58788 5.08398 4.49987C5.08398 4.41186 5.06656 4.32473 5.03271 4.24349C4.99887 4.16225 4.94927 4.08851 4.88679 4.02654L2.06012 1.16654C1.99783 1.10475 1.92395 1.05587 1.84272 1.02269C1.7615 0.989515 1.67452 0.972697 1.58679 0.973204C1.49905 0.972697 1.41207 0.989515 1.33085 1.02269C1.24962 1.05587 1.17575 1.10475 1.11345 1.16654C0.989285 1.29145 0.919591 1.46041 0.919591 1.63654C0.919591 1.81266 0.989285 1.98163 1.11345 2.10654L3.47345 4.49987Z" fill="#C8D2DC"/>
</svg>
