<svg width="17" height="17" viewBox="0 0 17 17" fill="none" xmlns="http://www.w3.org/2000/svg">
<path d="M15.3779 14.3726L12.75 11.7659C13.7701 10.494 14.2641 8.87965 14.1304 7.25474C13.9967 5.62982 13.2456 4.11787 12.0314 3.02977C10.8172 1.94167 9.23227 1.36013 7.60248 1.40473C5.97269 1.44933 4.42192 2.11667 3.26905 3.26954C2.11618 4.42241 1.44884 5.97318 1.40424 7.60297C1.35965 9.23276 1.94119 10.8177 3.02928 12.0319C4.11738 13.2461 5.62933 13.9972 7.25425 14.1309C8.87916 14.2645 10.4935 13.7706 11.7654 12.7505L14.3721 15.3571C14.4379 15.4235 14.5163 15.4762 14.6026 15.5122C14.6889 15.5482 14.7815 15.5667 14.875 15.5667C14.9685 15.5667 15.0611 15.5482 15.1474 15.5122C15.2337 15.4762 15.3121 15.4235 15.3779 15.3571C15.5056 15.2251 15.5769 15.0486 15.5769 14.8649C15.5769 14.6812 15.5056 14.5046 15.3779 14.3726ZM7.79166 12.7505C6.81099 12.7505 5.85235 12.4597 5.03696 11.9149C4.22156 11.37 3.58604 10.5956 3.21076 9.68962C2.83547 8.7836 2.73728 7.78665 2.9286 6.82483C3.11992 5.863 3.59215 4.97951 4.28559 4.28608C4.97902 3.59264 5.86251 3.12041 6.82434 2.92909C7.78616 2.73777 8.78312 2.83596 9.68913 3.21125C10.5951 3.58653 11.3695 4.22205 11.9144 5.03745C12.4592 5.85284 12.75 6.81148 12.75 7.79215C12.75 9.10718 12.2276 10.3684 11.2977 11.2982C10.3679 12.2281 9.10669 12.7505 7.79166 12.7505Z" fill="#C8D2DC"/>
</svg>
