<svg width="374" height="54" viewBox="0 0 374 54" fill="none" xmlns="http://www.w3.org/2000/svg">
<path opacity="0.2" d="M46.12 54V55H47.12V54H46.12ZM34.68 54H33.68V55H34.68V54ZM34.68 16.64H35.68L33.7523 16.2666L34.68 16.64ZM19.64 54V55H20.3154L20.5677 54.3734L19.64 54ZM14.68 54L13.7523 54.3734L14.0046 55H14.68V54ZM-0.360001 16.64L0.567654 16.2666L-1.36 16.64H-0.360001ZM-0.360001 54V55H0.639999V54H-0.360001ZM-11.72 54H-12.72V55H-11.72V54ZM-11.72 0.639996V-0.360004H-12.72V0.639996H-11.72ZM4.2 0.639996L5.12784 0.267017L4.87579 -0.360004H4.2V0.639996ZM17.16 32.88L16.2322 33.253L17.16 35.5611L18.0878 33.253L17.16 32.88ZM30.12 0.639996V-0.360004H29.4442L29.1922 0.267017L30.12 0.639996ZM46.12 0.639996H47.12V-0.360004H46.12V0.639996ZM46.12 53H34.68V55H46.12V53ZM35.68 54V16.64H33.68V54H35.68ZM33.7523 16.2666L18.7123 53.6266L20.5677 54.3734L35.6077 17.0134L33.7523 16.2666ZM19.64 53H14.68V55H19.64V53ZM15.6077 53.6266L0.567654 16.2666L-1.28765 17.0134L13.7523 54.3734L15.6077 53.6266ZM-1.36 16.64V54H0.639999V16.64H-1.36ZM-0.360001 53H-11.72V55H-0.360001V53ZM-10.72 54V0.639996H-12.72V54H-10.72ZM-11.72 1.64H4.2V-0.360004H-11.72V1.64ZM3.27216 1.01297L16.2322 33.253L18.0878 32.507L5.12784 0.267017L3.27216 1.01297ZM18.0878 33.253L31.0478 1.01297L29.1922 0.267017L16.2322 32.507L18.0878 33.253ZM30.12 1.64H46.12V-0.360004H30.12V1.64ZM45.12 0.639996V54H47.12V0.639996H45.12ZM106.478 54V55H107.934L107.411 53.6405L106.478 54ZM93.5175 54L92.5775 54.3411L92.8165 55H93.5175V54ZM90.2375 44.96L91.1775 44.6189L90.9385 43.96H90.2375V44.96ZM67.3575 44.96V43.96H66.6623L66.4202 44.6116L67.3575 44.96ZM63.9975 54V55H64.6927L64.9348 54.3484L63.9975 54ZM51.0375 54L50.1048 53.6392L49.5785 55H51.0375V54ZM71.6775 0.639996V-0.360004H70.9921L70.7448 0.279238L71.6775 0.639996ZM85.9175 0.639996L86.8506 0.280455L86.6039 -0.360004H85.9175V0.639996ZM87.1175 34.96V35.96H88.5435L88.0577 34.6193L87.1175 34.96ZM78.7975 12L79.7377 11.6593L78.7975 9.06478L77.8573 11.6593L78.7975 12ZM70.4775 34.96L69.5373 34.6193L69.0515 35.96H70.4775V34.96ZM106.478 53H93.5175V55H106.478V53ZM94.4575 53.6589L91.1775 44.6189L89.2975 45.3011L92.5775 54.3411L94.4575 53.6589ZM90.2375 43.96H67.3575V45.96H90.2375V43.96ZM66.4202 44.6116L63.0602 53.6516L64.9348 54.3484L68.2948 45.3084L66.4202 44.6116ZM63.9975 53H51.0375V55H63.9975V53ZM51.9702 54.3608L72.6102 1.00075L70.7448 0.279238L50.1048 53.6392L51.9702 54.3608ZM71.6775 1.64H85.9175V-0.360004H71.6775V1.64ZM84.9844 0.999537L105.544 54.3595L107.411 53.6405L86.8506 0.280455L84.9844 0.999537ZM88.0577 34.6193L79.7377 11.6593L77.8573 12.3407L86.1773 35.3007L88.0577 34.6193ZM77.8573 11.6593L69.5373 34.6193L71.4177 35.3007L79.7377 12.3407L77.8573 11.6593ZM70.4775 35.96H87.1175V33.96H70.4775V35.96ZM157.085 54V55H159.165L157.866 53.3756L157.085 54ZM143.085 54L142.288 54.6033L142.588 55H143.085V54ZM126.925 32.64L127.722 32.0367L126.965 31.0358L126.159 31.9974L126.925 32.64ZM122.765 37.6L121.999 36.9574L121.765 37.2362V37.6H122.765ZM122.765 54V55H123.765V54H122.765ZM111.405 54H110.405V55H111.405V54ZM111.405 0.639996V-0.360004H110.405V0.639996H111.405ZM122.765 0.639996H123.765V-0.360004H122.765V0.639996ZM122.765 24.48H121.765V27.3534L123.549 25.1008L122.765 24.48ZM141.645 0.639996V-0.360004H141.161L140.861 0.0191574L141.645 0.639996ZM155.645 0.639996L156.408 1.28616L157.802 -0.360004H155.645V0.639996ZM134.445 25.68L133.682 25.0338L133.15 25.6618L133.664 26.3044L134.445 25.68ZM157.085 53H143.085V55H157.085V53ZM143.882 53.3967L127.722 32.0367L126.128 33.2433L142.288 54.6033L143.882 53.3967ZM126.159 31.9974L121.999 36.9574L123.531 38.2426L127.691 33.2826L126.159 31.9974ZM121.765 37.6V54H123.765V37.6H121.765ZM122.765 53H111.405V55H122.765V53ZM112.405 54V0.639996H110.405V54H112.405ZM111.405 1.64H122.765V-0.360004H111.405V1.64ZM121.765 0.639996V24.48H123.765V0.639996H121.765ZM123.549 25.1008L142.429 1.26083L140.861 0.0191574L121.981 23.8592L123.549 25.1008ZM141.645 1.64H155.645V-0.360004H141.645V1.64ZM154.882 -0.00616455L133.682 25.0338L135.208 26.3262L156.408 1.28616L154.882 -0.00616455ZM133.664 26.3044L156.304 54.6244L157.866 53.3756L135.226 25.0556L133.664 26.3044ZM200.024 54V55H201.024V54H200.024ZM162.264 54H161.264V55H162.264V54ZM162.264 0.639996V-0.360004H161.264V0.639996H162.264ZM200.024 0.639996H201.024V-0.360004H200.024V0.639996ZM200.024 10.64V11.64H201.024V10.64H200.024ZM173.624 10.64V9.64H172.624V10.64H173.624ZM173.624 21.92H172.624V22.92H173.624V21.92ZM199.464 21.92H200.464V20.92H199.464V21.92ZM199.464 31.92V32.92H200.464V31.92H199.464ZM173.624 31.92V30.92H172.624V31.92H173.624ZM173.624 44H172.624V45H173.624V44ZM200.024 44H201.024V43H200.024V44ZM200.024 53H162.264V55H200.024V53ZM163.264 54V0.639996H161.264V54H163.264ZM162.264 1.64H200.024V-0.360004H162.264V1.64ZM199.024 0.639996V10.64H201.024V0.639996H199.024ZM200.024 9.64H173.624V11.64H200.024V9.64ZM172.624 10.64V21.92H174.624V10.64H172.624ZM173.624 22.92H199.464V20.92H173.624V22.92ZM198.464 21.92V31.92H200.464V21.92H198.464ZM199.464 30.92H173.624V32.92H199.464V30.92ZM172.624 31.92V44H174.624V31.92H172.624ZM173.624 45H200.024V43H173.624V45ZM199.024 44V54H201.024V44H199.024ZM279.134 54V55H280.591L280.067 53.6405L279.134 54ZM266.174 54L265.234 54.3411L265.473 55H266.174V54ZM262.894 44.96L263.834 44.6189L263.595 43.96H262.894V44.96ZM240.014 44.96V43.96H239.319L239.076 44.6116L240.014 44.96ZM236.654 54V55H237.349L237.591 54.3484L236.654 54ZM223.694 54L222.761 53.6392L222.235 55H223.694V54ZM244.334 0.639996V-0.360004H243.648L243.401 0.279238L244.334 0.639996ZM258.574 0.639996L259.507 0.280455L259.26 -0.360004H258.574V0.639996ZM259.774 34.96V35.96H261.2L260.714 34.6193L259.774 34.96ZM251.454 12L252.394 11.6593L251.454 9.06478L250.514 11.6593L251.454 12ZM243.134 34.96L242.194 34.6193L241.708 35.96H243.134V34.96ZM279.134 53H266.174V55H279.134V53ZM267.114 53.6589L263.834 44.6189L261.954 45.3011L265.234 54.3411L267.114 53.6589ZM262.894 43.96H240.014V45.96H262.894V43.96ZM239.076 44.6116L235.716 53.6516L237.591 54.3484L240.951 45.3084L239.076 44.6116ZM236.654 53H223.694V55H236.654V53ZM224.626 54.3608L245.266 1.00075L243.401 0.279238L222.761 53.6392L224.626 54.3608ZM244.334 1.64H258.574V-0.360004H244.334V1.64ZM257.641 0.999537L278.201 54.3595L280.067 53.6405L259.507 0.280455L257.641 0.999537ZM260.714 34.6193L252.394 11.6593L250.514 12.3407L258.834 35.3007L260.714 34.6193ZM250.514 11.6593L242.194 34.6193L244.074 35.3007L252.394 12.3407L250.514 11.6593ZM243.134 35.96H259.774V33.96H243.134V35.96ZM327.261 54V55H329.013L328.122 53.4915L327.261 54ZM314.221 54L313.346 54.4838L313.631 55H314.221V54ZM303.741 35.04L304.616 34.5562L304.331 34.04H303.741V35.04ZM295.421 35.04V34.04H294.421V35.04H295.421ZM295.421 54V55H296.421V54H295.421ZM284.061 54H283.061V55H284.061V54ZM284.061 0.639996V-0.360004H283.061V0.639996H284.061ZM322.061 5.43999L321.354 6.14713L321.36 6.15292L322.061 5.43999ZM323.501 28.48L322.737 27.8354L322.729 27.8443L323.501 28.48ZM315.261 33.68L315.038 32.7053L313.705 33.0112L314.4 34.1885L315.261 33.68ZM313.101 23.12L313.752 23.8793L313.76 23.8727L313.767 23.8659L313.101 23.12ZM313.101 12.64L312.435 13.3859L312.443 13.3927L312.45 13.3993L313.101 12.64ZM295.421 10.64V9.64H294.421V10.64H295.421ZM295.421 25.04H294.421V26.04H295.421V25.04ZM327.261 53H314.221V55H327.261V53ZM315.096 53.5162L304.616 34.5562L302.866 35.5238L313.346 54.4838L315.096 53.5162ZM303.741 34.04H295.421V36.04H303.741V34.04ZM294.421 35.04V54H296.421V35.04H294.421ZM295.421 53H284.061V55H295.421V53ZM285.061 54V0.639996H283.061V54H285.061ZM284.061 1.64H309.021V-0.360004H284.061V1.64ZM309.021 1.64C314.31 1.64 318.381 3.17347 321.354 6.1471L322.768 4.73289C319.342 1.30652 314.719 -0.360004 309.021 -0.360004V1.64ZM321.36 6.15292C324.4 9.14331 325.941 13.0089 325.941 17.84H327.941C327.941 12.5377 326.229 8.13668 322.762 4.72707L321.36 6.15292ZM325.941 17.84C325.941 22.0334 324.845 25.3344 322.737 27.8354L324.266 29.1246C326.744 26.1856 327.941 22.3932 327.941 17.84H325.941ZM322.729 27.8443C320.621 30.404 318.063 32.0109 315.038 32.7053L315.485 34.6547C318.966 33.8558 321.901 31.9959 324.273 29.1157L322.729 27.8443ZM314.4 34.1885L326.4 54.5085L328.122 53.4915L316.122 33.1715L314.4 34.1885ZM307.341 26.04C309.878 26.04 312.044 25.3434 313.752 23.8793L312.45 22.3607C311.172 23.4566 309.498 24.04 307.341 24.04V26.04ZM313.767 23.8659C315.494 22.3241 316.341 20.2821 316.341 17.84H314.341C314.341 19.7713 313.695 21.2492 312.435 22.3741L313.767 23.8659ZM316.341 17.84C316.341 15.3981 315.493 13.3734 313.752 11.8807L312.45 13.3993C313.696 14.4666 314.341 15.9086 314.341 17.84H316.341ZM313.767 11.8941C312.06 10.3695 309.889 9.64 307.341 9.64V11.64C309.487 11.64 311.156 12.2438 312.435 13.3859L313.767 11.8941ZM307.341 9.64H295.421V11.64H307.341V9.64ZM294.421 10.64V25.04H296.421V10.64H294.421ZM295.421 26.04H307.341V24.04H295.421V26.04ZM358.446 54V55H359.446V54H358.446ZM347.006 54H346.006V55H347.006V54ZM347.006 10.64H348.006V9.64H347.006V10.64ZM331.406 10.64H330.406V11.64H331.406V10.64ZM331.406 0.639996V-0.360004H330.406V0.639996H331.406ZM373.966 0.639996H374.966V-0.360004H373.966V0.639996ZM373.966 10.64V11.64H374.966V10.64H373.966ZM358.446 10.64V9.64H357.446V10.64H358.446ZM358.446 53H347.006V55H358.446V53ZM348.006 54V10.64H346.006V54H348.006ZM347.006 9.64H331.406V11.64H347.006V9.64ZM332.406 10.64V0.639996H330.406V10.64H332.406ZM331.406 1.64H373.966V-0.360004H331.406V1.64ZM372.966 0.639996V10.64H374.966V0.639996H372.966ZM373.966 9.64H358.446V11.64H373.966V9.64ZM357.446 10.64V54H359.446V10.64H357.446Z" fill="#FCFFFF"/>
</svg>
